<?xml version="1.0" encoding="UTF-8"?>
<!-- Generated by Pixelmator Pro 3.7.1 -->
<svg width="270" height="58" viewBox="0 0 270 58" xmlns="http://www.w3.org/2000/svg">
    <path id="border" fill="#ffffff" stroke="none" d="M 22.616251 55.895378 L 17.492979 50.814095 L 37.986191 50.814095 L 32.862919 55.895378 C 30.033548 58.701542 25.445618 58.701542 22.616251 55.895378 Z M 48.233208 40.651184 L 53.356243 35.570129 C 54.771332 34.166527 55.47847 32.328037 55.47847 30.488735 C 55.47847 28.649433 54.771332 26.810944 53.356243 25.407455 L 48.232971 20.326172 L 37.986305 10.162632 L 27.739758 0 L 17.492281 10.162632 L 17.492165 10.162632 L 7.24549 20.326172 L 2.122228 25.407455 C 0.707129 26.810131 -0 28.649433 -0 30.488735 C -0 32.327225 0.707129 34.166527 2.122228 35.570129 L 7.245547 40.651413 L 7.245603 40.65136 L 17.491817 50.813515 L 37.98642 50.81398 L 48.232967 40.651413 Z"/>
    <g id="Group">
        <path id="Path" fill="#add6f2" stroke="none" d="M 19.079399 30.2833 L 10.24614 21.522499 L 5.8295 25.902901 C 4.609592 27.112101 4 28.697701 4 30.2833 Z"/>
        <path id="path1" fill="#64b8f2" stroke="none" d="M 19.079399 30.2833 L 10.24614 39.044201 L 5.8295 34.663799 C 4.609592 33.4538 4 31.8682 4 30.2833 Z"/>
        <path id="path2" fill="#64b8f2" stroke="none" d="M 36.7467 30.2833 L 45.580002 39.044201 L 49.996601 34.663799 C 51.216499 33.4538 51.826099 31.8689 51.826099 30.2833 Z"/>
        <path id="path3" fill="#add6f2" stroke="none" d="M 36.7467 30.2833 L 45.580002 21.522499 L 49.996601 25.902901 C 51.216499 27.112801 51.826099 28.697701 51.826099 30.2833 Z"/>
        <path id="path4" fill="#0c2866" stroke="none" d="M 27.9133 39.044201 L 19.080101 47.805099 L 23.4967 52.185501 C 25.935801 54.604599 29.8909 54.604599 32.330002 52.185501 L 36.746601 47.805099 Z"/>
        <path id="path5" fill="#dd423e" stroke="none" d="M 45.580002 21.522499 L 36.7467 30.2833 L 27.9135 21.522499 Z"/>
        <path id="path6" fill="#dd423e" stroke="none" d="M 36.7467 12.76086 L 27.9135 21.522499 L 19.0795 12.76086 Z"/>
        <path id="path7" fill="#add6f2" stroke="none" d="M 19.0795 12.760872 L 27.9135 4 L 36.7467 12.760872 Z"/>
        <path id="path8" fill="#dd423e" stroke="none" d="M 27.913401 21.522499 L 19.079399 30.2833 L 10.24609 21.522499 Z"/>
        <path id="path9" fill="#c41c1c" stroke="none" d="M 10.24609 21.522499 L 19.079399 12.76086 L 27.913401 21.522499 Z"/>
        <path id="path10" fill="#c41c1c" stroke="none" d="M 27.9135 21.522499 L 36.7467 12.76086 L 45.580002 21.522499 Z"/>
        <path id="path11" fill="#a31916" stroke="none" d="M 27.9135 39.044201 L 19.0795 30.2833 L 27.9135 21.522499 Z"/>
        <path id="path12" fill="#c41c1c" stroke="none" d="M 27.9135 21.522499 L 36.7467 30.2833 L 27.9135 39.044201 Z"/>
        <path id="path13" fill="#2672b5" stroke="none" d="M 27.9125 39.043701 L 19.0791 30.2827 L 10.24573 39.043701 L 19.0791 47.8046 Z"/>
        <path id="path14" fill="#0c2866" stroke="none" d="M 45.5802 39.043999 L 36.746799 30.2831 L 27.9135 39.043999 L 36.746799 47.805 Z"/>
    </g>
    <clipPath id="clipPath1">
        <path d="M 67 21 L 269.605988 21 L 269.605988 46 L 67 46 Z"/>
    </clipPath>
    <g id="g1" clip-path="url(#clipPath1)">
        <path id="path15" fill="#ffffff" stroke="none" d="M 67 21.950699 L 75.524101 21.950699 C 78.862503 21.950699 80.953102 23.9044 80.953102 26.754801 C 80.953102 28.926399 79.894302 30.365101 78.563698 31.124901 C 80.517403 31.5319 82.092903 33.024597 82.092903 35.603203 C 82.092903 38.779499 79.460297 40.951 75.659203 40.951 L 67 40.951 Z M 74.681503 29.821301 C 76.282303 29.821301 77.152 28.7626 77.152 27.296801 C 77.152 25.8311 76.228302 24.934498 74.654503 24.934498 L 70.691299 24.934498 L 70.691299 29.821301 Z M 75.468399 37.9655 C 77.287102 37.9655 78.291801 36.9608 78.291801 35.360001 C 78.291801 33.759201 77.233002 32.781502 75.441399 32.781502 L 70.691299 32.781502 L 70.691299 37.9655 Z"/>
        <path id="path16" fill="#ffffff" stroke="none" d="M 84.534698 21.135101 L 88.225998 21.135101 L 88.225998 40.951 L 84.534698 40.951 Z"/>
        <path id="path17" fill="#ffffff" stroke="none" d="M 104.105698 40.951 L 100.5765 40.951 L 100.5765 39.267502 C 99.924698 40.4613 98.296898 41.276901 96.478302 41.276901 C 93.302002 41.276901 91.537399 39.0784 91.537399 35.875099 L 91.537399 26.835899 L 95.228699 26.835899 L 95.228699 35.360001 C 95.228699 37.1516 96.069603 38.183399 97.726097 38.183399 C 99.382698 38.183399 100.412697 37.097599 100.412697 35.333 L 100.412697 26.835899 L 104.104103 26.835899 L 104.104103 40.951 Z"/>
        <path id="path18" fill="#ffffff" stroke="none" d="M 106.848 34.980103 L 106.848 33.053398 C 106.848 29.2253 109.127998 26.5117 113.362999 26.5117 C 117.598 26.5117 119.660004 29.308001 119.660004 32.700401 L 119.660004 35.170898 L 110.43 35.170898 L 110.43 35.5238 C 110.43 37.180401 111.269997 38.619099 113.415001 38.619099 C 114.988998 38.619099 115.967003 37.805099 116.319 36.8274 L 119.550003 36.8274 C 119.061996 39.405899 116.537003 41.278599 113.415001 41.278599 C 109.425003 41.278599 106.846298 38.945 106.846298 34.9818 Z M 110.431 32.563698 L 116.266998 32.563698 L 116.266998 32.210701 C 116.266998 30.4461 115.345001 29.115499 113.362999 29.115499 C 111.245003 29.115499 110.431 30.527201 110.431 32.426903 L 110.431 32.562 Z"/>
        <path id="path19" fill="#ffffff" stroke="none" d="M 136.162003 34.8703 L 132.171997 34.8703 L 132.171997 40.951 L 128.373001 40.951 L 128.373001 21.950699 L 136.951004 21.950699 C 141.429001 21.950699 143.819 24.719997 143.819 28.411301 C 143.819 31.0979 142.406998 33.269501 140.072998 34.2742 L 144.035995 40.951 L 139.639008 40.951 L 136.164001 34.8703 Z M 136.488007 31.802099 C 138.824005 31.802099 140.018005 30.3634 140.018005 28.382601 C 140.018005 26.401899 138.796997 25.044201 136.488007 25.044201 L 132.171997 25.044201 L 132.171997 31.803801 L 136.488007 31.803801 Z"/>
        <path id="path20" fill="#ffffff" stroke="none" d="M 148.703995 21 C 149.951996 21 150.848007 21.923698 150.848007 23.144501 C 150.848007 24.365398 149.953003 25.289101 148.703995 25.289101 C 147.453995 25.289101 146.559006 24.365398 146.559006 23.144501 C 146.559006 21.923698 147.453995 21 148.703995 21 Z M 146.858002 26.835899 L 150.550003 26.835899 L 150.550003 40.951 L 146.858002 40.951 Z"/>
        <path id="path21" fill="#ffffff" stroke="none" d="M 153.373001 35.0611 L 153.373001 32.727402 C 153.373001 29.334999 155.490005 26.5116 159.289993 26.5116 C 161.162994 26.5116 162.546997 27.2985 163.334 28.3573 L 163.334 21.135101 L 167.024994 21.135101 L 167.024994 40.951 L 163.496002 40.951 L 163.496002 39.267502 C 162.789993 40.353199 161.352005 41.276901 159.315002 41.276901 C 155.516006 41.276901 153.371002 38.399502 153.371002 35.0611 Z M 163.335999 34.899002 L 163.335999 32.835503 C 163.335999 30.691 161.923996 29.497101 160.240997 29.497101 C 158.149994 29.497101 157.063995 30.9088 157.063995 32.8895 L 157.063995 34.899002 C 157.063995 36.771702 158.069 38.291401 160.214005 38.291401 C 162.085999 38.291401 163.335999 36.879799 163.335999 34.899002 Z"/>
        <path id="path22" fill="#ffffff" stroke="none" d="M 169.929993 41.793701 L 173.513 41.793701 C 174.001007 42.7714 175.113998 43.205299 176.552002 43.205299 C 178.425003 43.205299 179.621002 42.173599 179.621002 40.5998 L 179.621002 38.374199 C 179.022995 39.351898 177.395004 40.3009 175.576004 40.3009 C 171.776993 40.3009 169.768005 37.531601 169.768005 34.438 L 169.768005 32.3745 C 169.768005 29.2253 171.748001 26.5117 175.602997 26.5117 C 177.774994 26.5117 179.294998 27.597401 179.783997 28.5481 L 179.783997 26.837601 L 183.313995 26.837601 L 183.313995 40.652199 C 183.313995 43.6646 180.490005 46 176.554001 46 C 173.242996 46 170.5 44.453201 169.931 41.792 Z M 179.621002 34.2472 L 179.621002 32.617699 C 179.621002 30.718 178.317001 29.468399 176.552002 29.468399 C 174.488998 29.468399 173.429993 30.689301 173.429993 32.617699 L 173.429993 34.2472 C 173.429993 36.038799 174.434998 37.342499 176.442993 37.342499 C 178.179993 37.342499 179.619003 36.229698 179.619003 34.2472 Z"/>
        <path id="path23" fill="#ffffff" stroke="none" d="M 186.054001 34.980103 L 186.054001 33.053398 C 186.054001 29.2253 188.334 26.5117 192.569 26.5117 C 196.804001 26.5117 198.865997 29.308001 198.865997 32.700401 L 198.865997 35.170898 L 189.636002 35.170898 L 189.636002 35.5238 C 189.636002 37.180401 190.477005 38.619099 192.621002 38.619099 C 194.195007 38.619099 195.173004 37.805099 195.526001 36.8274 L 198.755997 36.8274 C 198.268005 39.405899 195.744003 41.278599 192.621002 41.278599 C 188.630997 41.278599 186.052994 38.945 186.052994 34.9818 Z M 189.638 32.563698 L 195.473999 32.563698 L 195.473999 32.210701 C 195.473999 30.4461 194.552002 29.115499 192.569 29.115499 C 190.451996 29.115499 189.638 30.527201 189.638 32.426903 L 189.638 32.562 Z"/>
        <path id="path24" fill="#ffffff" stroke="none" d="M 215.369995 34.8703 L 211.380005 34.8703 L 211.380005 40.951 L 207.580994 40.951 L 207.580994 21.950699 L 216.158997 21.950699 C 220.636993 21.950699 223.026993 24.719997 223.026993 28.411301 C 223.026993 31.0979 221.615005 33.269501 219.281006 34.2742 L 223.244003 40.951 L 218.847 40.951 L 215.371994 34.8703 Z M 215.695999 31.802099 C 218.031998 31.802099 219.225998 30.3634 219.225998 28.382601 C 219.225998 26.401899 218.005005 25.044201 215.695999 25.044201 L 211.380005 25.044201 L 211.380005 31.803801 L 215.695999 31.803801 Z"/>
        <path id="path25" fill="#ffffff" stroke="none" d="M 238.334 40.951 L 234.804993 40.951 L 234.804993 39.267502 C 234.153 40.4613 232.524994 41.276901 230.707001 41.276901 C 227.529999 41.276901 225.766006 39.0784 225.766006 35.875099 L 225.766006 26.835899 L 229.457001 26.835899 L 229.457001 35.360001 C 229.457001 37.1516 230.298004 38.183399 231.953995 38.183399 C 233.610992 38.183399 234.641006 37.097599 234.641006 35.333 L 234.641006 26.835899 L 238.332001 26.835899 L 238.332001 40.951 Z"/>
        <path id="path26" fill="#ffffff" stroke="none" d="M 245.229004 39.2691 L 245.229004 40.952702 L 241.699005 40.952702 L 241.699005 21.135101 L 245.391006 21.135101 L 245.391006 28.411301 C 246.151001 27.3526 247.561996 26.5116 249.434998 26.5116 C 253.235992 26.5116 255.352005 29.334999 255.352005 32.727402 L 255.352005 35.0611 C 255.352005 38.399502 253.207001 41.276901 249.408005 41.276901 C 247.371994 41.276901 245.878998 40.409 245.227005 39.267502 Z M 251.662003 34.899002 L 251.662003 32.8895 C 251.662003 30.9088 250.576996 29.497101 248.485992 29.497101 C 246.802002 29.497101 245.391006 30.691 245.391006 32.835503 L 245.391006 34.899002 C 245.391006 36.879799 246.639008 38.291401 248.513 38.291401 C 250.658005 38.291401 251.662003 36.771702 251.662003 34.899002 Z"/>
        <path id="path27" fill="#ffffff" stroke="none" d="M 259.804993 45.674099 L 261.216003 40.896999 L 256.330994 26.835899 L 260.02301 26.835899 L 263.062012 36.9608 L 265.940002 26.835899 L 269.604004 26.835899 L 263.441986 45.674099 Z"/>
    </g>
</svg>
